<svg xmlns="http://www.w3.org/2000/svg" width="640" height="360" viewBox="0 0 640 360">
<rect width="640" height="360" fill="#fff"/>
<rect x="56.0" y="24.0" width="520.0" height="280.0" fill="none" stroke="#111"/>
<text x="320" y="16" text-anchor="middle" font-size="12" font-family="sans-serif">S11 (dB)</text>
<text x="316.0" y="348" text-anchor="middle" font-size="11" font-family="sans-serif">GHz</text>
<text x="12" y="36.0" font-size="10" font-family="sans-serif">0.2</text>
<text x="12" y="304.0" font-size="10" font-family="sans-serif">-17.0</text>
<text x="56.0" y="338" font-size="10" font-family="sans-serif">1.00</text>
<text x="548.0" y="338" font-size="10" font-family="sans-serif">15.00</text>
<polyline fill="none" stroke="#1d4ed8" stroke-width="1.6" points="56.0,209.8 59.7,208.3 63.4,206.7 67.1,204.8 70.9,202.6 74.6,200.2 78.3,197.4 82.0,194.2 85.7,190.6 89.4,186.4 93.1,181.4 96.9,175.5 100.6,168.4 104.3,159.6 108.0,148.6 111.7,134.7 115.4,117.5 119.1,99.9 122.9,96.4 126.6,127.0 130.3,175.1 134.0,212.5 137.7,231.1 141.4,235.9 145.1,233.7 148.9,228.6 152.6,222.6 156.3,216.3 160.0,210.0 163.7,203.8 167.4,197.8 171.1,192.0 174.9,186.4 178.6,181.1 182.3,176.3 186.0,172.1 189.7,168.8 193.4,166.5 197.1,165.6 200.9,166.4 204.6,169.0 208.3,173.4 212.0,179.7 215.7,187.7 219.4,196.8 223.1,206.9 226.9,217.5 230.6,228.2 234.3,238.6 238.0,248.5 241.7,257.6 245.4,265.6 249.1,272.4 252.9,277.9 256.6,281.9 260.3,284.7 264.0,286.1 267.7,286.2 271.4,285.3 275.1,283.5 278.9,280.9 282.6,277.7 286.3,274.0 290.0,270.0 293.7,265.7 297.4,261.4 301.1,257.2 304.9,253.3 308.6,249.8 312.3,247.1 316.0,245.3 319.7,244.7 323.4,245.5 327.1,247.7 330.9,251.3 334.6,256.1 338.3,261.8 342.0,267.8 345.7,273.7 349.4,279.0 353.1,283.2 356.9,286.1 360.6,287.6 364.3,287.7 368.0,286.4 371.7,284.0 375.4,280.6 379.1,276.4 382.9,271.6 386.6,266.3 390.3,260.7 394.0,254.9 397.7,249.0 401.4,243.0 405.1,237.1 408.9,231.3 412.6,225.7 416.3,220.2 420.0,215.1 423.7,210.1 427.4,205.4 431.1,200.8 434.9,196.2 438.6,191.7 442.3,187.2 446.0,182.6 449.7,177.8 453.4,172.9 457.1,167.8 460.9,162.5 464.6,157.0 468.3,151.4 472.0,145.6 475.7,139.7 479.4,133.6 483.1,127.3 486.9,121.0 490.6,114.6 494.3,108.1 498.0,101.5 501.7,95.0 505.4,88.5 509.1,82.0 512.9,75.7 516.6,69.6 520.3,63.9 524.0,58.5 527.7,53.6 531.4,49.4 535.1,45.8 538.9,43.1 542.6,41.2 546.3,40.3 550.0,40.3 553.7,41.2 557.4,43.0 561.1,45.6 564.9,48.8 568.6,52.5 572.3,56.7 576.0,61.3"/>
<text x="64.0" y="40.0" font-size="11" font-family="sans-serif" fill="#1d4ed8">round-007-s11.csv</text>
<polyline fill="none" stroke="#b45309" stroke-width="1.6" points="56.0,204.4 59.7,202.8 63.4,200.9 67.1,198.8 70.9,196.4 74.6,193.6 78.3,190.4 82.0,186.7 85.7,182.5 89.4,177.5 93.1,171.5 96.9,164.3 100.6,155.3 104.3,144.1 108.0,129.4 111.7,109.9 115.4,84.9 119.1,62.5 122.9,78.9 126.6,141.2 130.3,202.6 134.0,241.1 137.7,255.9 141.4,256.2 145.1,250.7 148.9,243.4 152.6,235.9 156.3,228.8 160.0,222.2 163.7,216.1 167.4,210.6 171.1,205.7 174.9,201.6 178.6,198.3 182.3,196.1 186.0,195.1 189.7,195.6 193.4,197.6 197.1,201.2 200.9,206.3 204.6,212.8 208.3,220.3 212.0,228.5 215.7,237.0 219.4,245.4 223.1,253.3 226.9,260.5 230.6,266.7 234.3,271.8 238.0,275.6 241.7,278.2 245.4,279.7 249.1,280.1 252.9,279.6 256.6,278.2 260.3,276.1 264.0,273.5 267.7,270.3 271.4,266.8 275.1,263.0 278.9,258.9 282.6,254.6 286.3,250.1 290.0,245.5 293.7,240.8 297.4,236.0 301.1,231.3 304.9,226.5 308.6,221.9 312.3,217.4 316.0,213.3 319.7,209.5 323.4,206.2 327.1,203.7 330.9,202.0 334.6,201.4 338.3,201.8 342.0,203.3 345.7,205.7 349.4,208.8 353.1,212.1 356.9,215.3 360.6,218.0 364.3,219.8 368.0,220.4 371.7,220.0 375.4,218.4 379.1,215.8 382.9,212.4 386.6,208.5 390.3,204.1 394.0,199.5 397.7,194.8 401.4,190.1 405.1,185.6 408.9,181.1 412.6,176.9 416.3,173.0 420.0,169.2 423.7,165.7 427.4,162.2 431.1,158.9 434.9,155.6 438.6,152.1 442.3,148.5 446.0,144.7 449.7,140.6 453.4,136.1 457.1,131.2 460.9,126.0 464.6,120.6 468.3,115.0 472.0,109.4 475.7,104.0 479.4,98.9 483.1,94.4 486.9,90.6 490.6,87.7 494.3,85.9 498.0,85.1 501.7,85.3 505.4,86.6 509.1,88.6 512.9,91.4 516.6,94.7 520.3,98.4 524.0,102.4 527.7,106.5 531.4,110.8 535.1,115.1 538.9,119.4 542.6,123.6 546.3,127.8 550.0,131.8 553.7,135.7 557.4,139.5 561.1,143.2 564.9,146.7 568.6,150.1 572.3,153.4 576.0,156.6"/>
<text x="64.0" y="54.0" font-size="11" font-family="sans-serif" fill="#b45309">round-006-s11.csv</text>
</svg>